<?xml version="1.0" encoding="UTF-8" standalone="no"?>
<svg
   xmlns:dc="http://purl.org/dc/elements/1.1/"
   xmlns:cc="http://creativecommons.org/ns#"
   xmlns:rdf="http://www.w3.org/1999/02/22-rdf-syntax-ns#"
   xmlns:svg="http://www.w3.org/2000/svg"
   xmlns="http://www.w3.org/2000/svg"
   xmlns:sodipodi="http://sodipodi.sourceforge.net/DTD/sodipodi-0.dtd"
   xmlns:inkscape="http://www.inkscape.org/namespaces/inkscape"
   inkscape:version="1.0 (4035a4fb49, 2020-05-01)"
   width="41.671741mm"
   height="21.300957mm"
   viewBox="0 0 41.671741 21.300957"
   version="1.1"
   id="svg839"
   sodipodi:docname="logo.svg">
  <defs
     id="defs833" />
  <sodipodi:namedview
     inkscape:window-maximized="1"
     inkscape:window-y="0"
     inkscape:window-x="2560"
     inkscape:window-height="1343"
     inkscape:window-width="2560"
     showgrid="false"
     inkscape:document-rotation="0"
     inkscape:current-layer="layer1"
     inkscape:document-units="mm"
     inkscape:cy="80.87975"
     inkscape:cx="135.52897"
     inkscape:zoom="4.2295514"
     inkscape:pageshadow="2"
     inkscape:pageopacity="0.0"
     borderopacity="1.0"
     bordercolor="#666666"
     pagecolor="#ffffff"
     id="base" />
  <metadata
     id="metadata836">
    <rdf:RDF>
      <cc:Work
         rdf:about="">
        <dc:format>image/svg+xml</dc:format>
        <dc:type
           rdf:resource="http://purl.org/dc/dcmitype/StillImage" />
      </cc:Work>
    </rdf:RDF>
  </metadata>
  <g
     transform="translate(-60.367702,-42.551225)"
     id="layer1"
     inkscape:groupmode="layer"
     inkscape:label="Layer 1">
    <g
       transform="translate(-1.5875)"
       style="font-style:normal;font-weight:normal;font-size:10.5833px;line-height:1.25;font-family:sans-serif;letter-spacing:0px;word-spacing:0px;fill:#000000;fill-opacity:1;stroke:none;stroke-width:0.264583"
       id="text1596"
       aria-label="Open">
      <path
         id="path1608"
         style="stroke-width:0.264583"
         d="m 66.900332,43.398715 q -1.136878,0 -1.80867,0.847491 -0.666624,0.847491 -0.666624,2.309929 0,1.457271 0.666624,2.304762 0.671792,0.847491 1.80867,0.847491 1.136877,0 1.798334,-0.847491 0.666624,-0.847491 0.666624,-2.304762 0,-1.462438 -0.666624,-2.309929 -0.661457,-0.847491 -1.798334,-0.847491 z m 0,-0.84749 q 1.622634,0 2.594148,1.090369 0.971514,1.085201 0.971514,2.914541 0,1.824173 -0.971514,2.914542 -0.971514,1.085201 -2.594148,1.085201 -1.627803,0 -2.604484,-1.085201 -0.971514,-1.085202 -0.971514,-2.914542 0,-1.82934 0.971514,-2.914541 0.976681,-1.090369 2.604484,-1.090369 z" />
      <path
         id="path1610"
         style="stroke-width:0.264583"
         d="m 72.977461,49.537856 v 3.06957 H 72.02145 v -7.989151 h 0.956011 v 0.878497 q 0.299722,-0.516763 0.754473,-0.764809 0.459919,-0.253214 1.095537,-0.253214 1.054196,0 1.710485,0.837156 0.661456,0.837155 0.661456,2.201409 0,1.364253 -0.661456,2.201409 -0.656289,0.837155 -1.710485,0.837155 -0.635618,0 -1.095537,-0.248046 -0.454751,-0.253213 -0.754473,-0.769976 z m 3.234934,-2.020542 q 0,-1.049028 -0.43408,-1.643305 -0.428914,-0.599445 -1.183387,-0.599445 -0.754474,0 -1.188554,0.599445 -0.428913,0.594277 -0.428913,1.643305 0,1.049028 0.428913,1.648473 0.43408,0.594277 1.188554,0.594277 0.754473,0 1.183387,-0.594277 0.43408,-0.599445 0.43408,-1.648473 z" />
      <path
         id="path1612"
         style="stroke-width:0.264583"
         d="m 83.726124,47.274435 v 0.465087 h -4.371812 q 0.06201,0.981849 0.589109,1.498612 0.532266,0.511595 1.477942,0.511595 0.547768,0 1.059363,-0.134359 0.516763,-0.134358 1.02319,-0.403074 v 0.899167 q -0.511595,0.21704 -1.049028,0.330728 -0.537433,0.113687 -1.090369,0.113687 -1.384924,0 -2.196242,-0.806149 -0.806149,-0.80615 -0.806149,-2.180739 0,-1.421097 0.764808,-2.253085 0.769977,-0.837156 2.072219,-0.837156 1.167883,0 1.844843,0.754474 0.682126,0.749306 0.682126,2.041212 z m -0.950843,-0.279051 q -0.01034,-0.780312 -0.439248,-1.245398 -0.423746,-0.465087 -1.126543,-0.465087 -0.795814,0 -1.276404,0.449584 -0.475421,0.449583 -0.547768,1.266068 z" />
      <path
         id="path1614"
         style="stroke-width:0.264583"
         d="m 90.097809,46.912702 v 3.493315 h -0.950844 v -3.46231 q 0,-0.821652 -0.320392,-1.229895 -0.320393,-0.408242 -0.961179,-0.408242 -0.769976,0 -1.214392,0.490924 -0.444416,0.490925 -0.444416,1.338416 v 3.271107 h -0.956011 v -5.787742 h 0.956011 v 0.899167 q 0.341063,-0.52193 0.800982,-0.780311 0.465086,-0.258382 1.069699,-0.258382 0.997352,0 1.508947,0.620116 0.511595,0.614947 0.511595,1.813837 z" />
    </g>
    <g
       transform="translate(-1.5875)"
       style="font-style:normal;font-weight:normal;font-size:10.5833px;line-height:1.25;font-family:sans-serif;letter-spacing:0px;word-spacing:0px;fill:#000000;fill-opacity:1;stroke:none;stroke-width:0.264583"
       id="text1600"
       aria-label="   Otago">
      <path
         id="path1617"
         style="stroke-width:0.264583"
         d="m 74.630352,54.64347 q -1.136878,0 -1.808669,0.847491 -0.666624,0.847491 -0.666624,2.309929 0,1.457271 0.666624,2.304762 0.671791,0.84749 1.808669,0.84749 1.136878,0 1.798334,-0.84749 0.666624,-0.847491 0.666624,-2.304762 0,-1.462438 -0.666624,-2.309929 Q 75.76723,54.64347 74.630352,54.64347 Z m 0,-0.847491 q 1.622635,0 2.594149,1.09037 0.971514,1.085201 0.971514,2.914541 0,1.824172 -0.971514,2.914542 -0.971514,1.085201 -2.594149,1.085201 -1.627802,0 -2.604484,-1.085201 -0.971514,-1.085202 -0.971514,-2.914542 0,-1.82934 0.971514,-2.914541 0.976682,-1.09037 2.604484,-1.09037 z" />
      <path
         id="path1619"
         style="stroke-width:0.264583"
         d="m 80.728153,54.219725 v 1.643305 h 1.95853 v 0.738971 h -1.95853 v 3.141917 q 0,0.707965 0.191202,0.909502 0.19637,0.201538 0.790647,0.201538 h 0.976681 v 0.795814 h -0.976681 q -1.100705,0 -1.519282,-0.408242 -0.418578,-0.413411 -0.418578,-1.498612 v -3.141917 h -0.69763 V 55.86303 h 0.69763 v -1.643305 z" />
      <path
         id="path1621"
         style="stroke-width:0.264583"
         d="m 86.56757,58.741398 q -1.152381,0 -1.596797,0.263549 -0.444416,0.263549 -0.444416,0.899167 0,0.506428 0.330728,0.80615 0.335896,0.294555 0.909502,0.294555 0.790647,0 1.266069,-0.558104 0.480589,-0.563271 0.480589,-1.493444 v -0.211873 z m 1.896519,-0.392739 v 3.302113 h -0.950844 v -0.878496 q -0.32556,0.527097 -0.811317,0.780311 -0.485757,0.248046 -1.188554,0.248046 -0.888832,0 -1.41593,-0.496092 -0.52193,-0.50126 -0.52193,-1.338415 0,-0.976682 0.651121,-1.472774 0.656288,-0.496092 1.953363,-0.496092 h 1.333247 v -0.09302 q 0,-0.656289 -0.43408,-1.012855 -0.428913,-0.361734 -1.209225,-0.361734 -0.496092,0 -0.966346,0.118855 -0.470254,0.118856 -0.904335,0.356567 v -0.878497 q 0.52193,-0.201537 1.012855,-0.299722 0.490925,-0.103353 0.956011,-0.103353 1.255733,0 1.875848,0.651121 0.620116,0.651121 0.620116,1.974034 z" />
      <path
         id="path1623"
         style="stroke-width:0.264583"
         d="m 94.231161,58.689722 q 0,-1.033525 -0.428913,-1.601964 -0.423745,-0.568439 -1.193722,-0.568439 -0.764808,0 -1.193722,0.568439 -0.423745,0.568439 -0.423745,1.601964 0,1.028358 0.423745,1.596797 0.428914,0.568439 1.193722,0.568439 0.769977,0 1.193722,-0.568439 0.428913,-0.568439 0.428913,-1.596797 z m 0.950843,2.24275 q 0,1.477941 -0.656288,2.196241 -0.656289,0.723468 -2.010207,0.723468 -0.50126,0 -0.945676,-0.07751 -0.444416,-0.07235 -0.862993,-0.227376 V 62.62229 q 0.418577,0.227376 0.82682,0.335896 0.408242,0.10852 0.831988,0.10852 0.93534,0 1.400427,-0.490925 0.465086,-0.485757 0.465086,-1.472773 V 60.63275 q -0.294555,0.511595 -0.754473,0.764808 -0.459919,0.253214 -1.100705,0.253214 -1.064531,0 -1.715652,-0.811317 -0.651121,-0.811318 -0.651121,-2.149733 0,-1.343583 0.651121,-2.1549 0.651121,-0.811318 1.715652,-0.811318 0.640786,0 1.100705,0.253214 0.459918,0.253214 0.754473,0.764809 V 55.86303 h 0.950843 z" />
      <path
         id="path1625"
         style="stroke-width:0.264583"
         d="m 99.383283,56.529654 q -0.764809,0 -1.209225,0.599445 -0.444416,0.594277 -0.444416,1.63297 0,1.038693 0.439249,1.638137 0.444415,0.594277 1.214392,0.594277 0.759637,0 1.204057,-0.599444 0.44442,-0.599445 0.44442,-1.63297 0,-1.028358 -0.44442,-1.627803 -0.44442,-0.604612 -1.204057,-0.604612 z m 0,-0.80615 q 1.240227,0 1.948197,0.80615 0.70796,0.80615 0.70796,2.232415 0,1.421097 -0.70796,2.232414 -0.70797,0.80615 -1.948197,0.80615 -1.245398,0 -1.953363,-0.80615 -0.702797,-0.811317 -0.702797,-2.232414 0,-1.426265 0.702797,-2.232415 0.707965,-0.80615 1.953363,-0.80615 z" />
    </g>
  </g>
</svg>
